<?xml version="1.0"?>
<svg width="1550" height="470" xmlns="http://www.w3.org/2000/svg" xmlns:svg="http://www.w3.org/2000/svg">
 <metadata id="metadata8">image/svg+xml</metadata>
 <defs>
  <clipPath clipPathUnits="userSpaceOnUse" id="clipPath24">
   <path d="m0,459.213l1457.008,0l0,-459.213l-1457.008,0l0,459.213z" id="path26"/>
  </clipPath>
 </defs>
 <g>
  <title>Layer 1</title>
  <path fill="#c13c32" fill-rule="nonzero" d="m1537.637497,275.709165l-1016.2825,0l0,-12.72l1016.2825,0l0,12.72z" id="path14"/>
  <g id="g16" transform="matrix(1.25,0,0,-1.25,142.29296875,-31.277626647949205) ">
   <path fill="#ffffff" fill-rule="nonzero" d="m346.53749,-172.548939l21.157,44.005l20.516,-44.005l-41.673,0zm21.849,86.261l-64.411,-129.392l22.041,0l11.071,23.716l60.3,0l11.432,-23.716l24.839,0l-65.272,129.392z" id="path18"/>
  </g>
  <g transform="matrix(1.25,0,0,-1.25,0,574.01625) " id="g22" clip-path="url(#clipPath24)">
   <g id="g28" transform="translate(460.7655944824219,137.9394989013672) ">
    <path fill="#c13c32" fill-rule="nonzero" d="m-108.800004,42.666668c15.024,26.804 23.635,57.693 23.635,90.604c0,102.482 -83.055,185.565 -185.544,185.565c-102.465,0 -185.537,-83.083 -185.537,-185.565c0,-61.375 29.834,-115.762 75.764,-149.539l164.049,293.94l107.633,-235.005z" id="path30"/>
   </g>
   <g id="g32" transform="translate(244.61380004882812,51.085899353027344) ">
    <path fill="#c13c32" fill-rule="nonzero" d="m-108.800004,42.666668c17.164,-5.246 35.377,-8.085 54.243,-8.085c56.243,0 106.589,25.052 140.605,64.562l-86.329,193.339l-108.519,-249.816z" id="path34"/>
   </g>
   <g id="g36" transform="translate(353.1322937011719,372.9443054199219) ">
    <path fill="#ffffff" fill-rule="nonzero" d="m-108.800004,42.666668l-164.048,-293.939c16.619,-12.222 35.341,-21.754 55.529,-27.919l108.519,249.816l86.329,-193.34c8.067,9.369 15.221,19.525 21.304,30.377l-107.633,235.005z" id="path38"/>
   </g>
   <g id="g40" transform="translate(592.9359741210938,171.14840698242188) ">
    <path fill="#ffffff" fill-rule="nonzero" d="m-108.800004,42.666668l-47.916,0l0,-50.01l47.916,0l0,20.357l-24.705,0l0,8.753l34.89,0l0,-22.356c0,-6.305 -1.005,-10.61 -3.01,-12.904c-2.001,-2.274 -5.779,-3.426 -11.323,-3.426l-39.591,0c-5.603,0 -9.402,1.152 -11.378,3.469c-1.991,2.293 -2.979,6.603 -2.979,12.861l0,36.348c0,6.273 0.988,10.569 2.979,12.876c1.976,2.306 5.775,3.474 11.378,3.474l39.591,0c5.469,0 9.229,-1.126 11.268,-3.369c2.044,-2.249 3.065,-6.315 3.065,-12.195l0,-1.693l-10.185,-2.287l0,10.102z" id="path42"/>
   </g>
   <g id="g44" transform="translate(699.52978515625,137.30859375) ">
    <path fill="#ffffff" fill-rule="nonzero" d="m-108.800004,42.666668l32.94,0l-16.488,35.369l-16.452,-35.369zm-22.163,-25.746l33.391,69.028l10.942,0l33.995,-69.028l-11.234,0l-7.81,16.986l-41.402,0l-7.814,-16.986l-10.068,0z" id="path46"/>
   </g>
   <g id="g48" transform="translate(840.5443725585938,168.24020385742188) ">
    <path fill="#ffffff" fill-rule="nonzero" d="m-108.800004,42.666668c0.159,-1.334 0.28,-2.756 0.347,-4.243c0.075,-1.484 0.112,-3.43 0.112,-5.878l0,-46.557l-8.684,0l0,69.029l8.347,0l29.762,-44.933l27.731,44.933l9.377,0l0,-69.029l-9.377,0l0,46.557c0,0.611 0.074,2.141 0.196,4.6c0.16,2.459 0.234,4.294 0.273,5.521c-0.769,-1.783 -1.452,-3.28 -2.062,-4.504c-0.59,-1.223 -1.124,-2.198 -1.584,-2.939l-23.401,-38.4l-2.604,0l-24.311,37.362c-0.037,0.043 -0.15,0.197 -0.301,0.46c-1.769,2.73 -3.044,5.417 -3.821,8.021" id="path50"/>
   </g>
   <path fill="#ffffff" fill-rule="nonzero" d="m887.361996,223.257668l10.183,0l0,-69.028l-10.183,0l0,69.028z" id="path52"/>
   <g id="g54" transform="translate(1094.97900390625,111.5625) ">
    <path fill="#ffffff" fill-rule="nonzero" d="m-108.800004,42.666668l0,69.028l6.426,0l45.793,-46.177c1.03,-1.042 2.144,-2.311 3.325,-3.785c1.181,-1.476 2.381,-3.115 3.617,-4.9c-0.32,2.22 -0.536,4.539 -0.684,6.955c-0.16,2.414 -0.244,5.758 -0.244,10.021l0,37.886l9.376,0l0,-69.028l-5.723,0l-47.028,48c-0.235,0.218 -0.571,0.566 -1.049,1.048c-2.316,2.339 -4.019,4.58 -5.134,6.711c0.214,-2.087 0.402,-4.329 0.506,-6.69c0.131,-2.371 0.195,-5.168 0.195,-8.383l0,-40.686l-9.376,0z" id="path56"/>
   </g>
   <g id="g58" transform="translate(1308.41748046875,171.14840698242188) ">
    <path fill="#ffffff" fill-rule="nonzero" d="m-108.800004,42.666668l-47.938,0l0,-50.01l47.938,0l0,20.357l-24.716,0l0,8.753l34.888,0l0,-22.356c0,-6.305 -0.993,-10.61 -2.996,-12.904c-2.006,-2.274 -5.791,-3.426 -11.336,-3.426l-39.581,0c-5.603,0 -9.398,1.152 -11.383,3.469c-1.996,2.293 -2.989,6.603 -2.989,12.861l0,36.348c0,6.273 0.993,10.569 2.989,12.876c1.985,2.306 5.78,3.474 11.383,3.474l39.581,0c5.479,0 9.227,-1.126 11.269,-3.369c2.042,-2.249 3.063,-6.315 3.063,-12.195l0,-1.693l-10.172,-2.287l0,10.102z" id="path60"/>
   </g>
   <g id="g62" transform="translate(765.93408203125,315.1343078613281) ">
    <path fill="#ffffff" fill-rule="nonzero" d="m-108.800004,42.666668l-62.282,0l0,-23.195l59.313,0c9.293,0 15.56,-1.804 18.83,-5.432c3.26,-3.619 4.901,-10.352 4.901,-20.201l0,-14.919c0,-9.803 -1.641,-16.495 -4.901,-20.1c-3.27,-3.61 -9.537,-5.399 -18.83,-5.399l-58.774,0c-9.288,0 -15.566,1.789 -18.835,5.399c-3.269,3.605 -4.896,10.297 -4.896,20.1l0,2.997l19.412,4.664l0,-12.94l67.413,0l0,24.812l-59.398,0c-9.275,0 -15.523,1.792 -18.783,5.411c-3.242,3.618 -4.872,10.328 -4.872,20.144l0,11.935c0,9.816 1.63,16.549 4.872,20.168c3.26,3.618 9.508,5.431 18.783,5.431l53.99,0c8.901,0 15.047,-1.747 18.411,-5.222c3.363,-3.476 5.059,-9.643 5.059,-18.517l0,-2.274l-19.413,-5.267l0,12.405z" id="path64"/>
   </g>
   <g id="g66" transform="translate(903.9105834960938,315.3965148925781) ">
    <path fill="#ffffff" fill-rule="nonzero" d="m-108.800004,42.666668l-49.632,0l0,-28.848l49.632,0c3.823,0 6.437,0.636 7.852,1.905c1.405,1.267 2.107,3.518 2.107,6.755l0,11.64c0,3.16 -0.702,5.368 -2.107,6.635c-1.415,1.29 -4.029,1.913 -7.852,1.913m-71.46,-89.508l0,108.121l81.232,0c7.551,0 13.003,-1.649 16.395,-4.94c3.391,-3.299 5.096,-8.602 5.096,-15.935l0,-24.32c0,-7.291 -1.705,-12.594 -5.096,-15.906c-3.392,-3.311 -8.844,-4.963 -16.395,-4.963l-59.404,0l0,-42.057l-21.828,0z" id="path68"/>
   </g>
   <g id="g70" transform="translate(969.31201171875,225.88870239257812) ">
    <path fill="#ffffff" fill-rule="nonzero" d="m-108.800004,42.666668l0,108.121l97.327,0l0,-18.342l-75.219,0l0,-24.262l43.965,0l0,-18.344l-43.965,0l0,-26.953l76.035,0l0,-20.22l-98.143,0z" id="path72"/>
   </g>
   <g id="g74" transform="translate(1188.14501953125,314.5869140625) ">
    <path fill="#ffffff" fill-rule="nonzero" d="m-108.800004,42.666668l-59.59,0l0,-68.479l59.59,0l0,23.457l22.101,-5.267l0,-12.922c0,-9.857 -1.622,-16.571 -4.881,-20.143c-3.271,-3.564 -9.481,-5.344 -18.642,-5.344l-56.725,0c-9.229,0 -15.459,1.78 -18.691,5.344c-3.241,3.572 -4.852,10.286 -4.852,20.143l0,57.058c0,9.815 1.611,16.526 4.852,20.144c3.232,3.618 9.462,5.431 18.691,5.431l56.725,0c9.161,0 15.371,-1.813 18.642,-5.431c3.259,-3.618 4.881,-10.329 4.881,-20.144l0,-10.122l-22.101,-3.936l0,20.211z" id="path76"/>
   </g>
   <g id="g78" transform="translate(1300.03173828125,314.5869140625) ">
    <path fill="#ffffff" fill-rule="nonzero" d="m-108.800004,42.666668l0,-88.698l-22.1,0l0,88.698l-43.684,0l0,19.422l109.469,0l0,-19.422l-43.685,0z" id="path80"/>
   </g>
   <g id="g82" transform="translate(456.4486999511719,371.1216125488281) ">
    <path fill="#ffffff" fill-rule="nonzero" d="m-108.800004,42.666668l-4.712,0l0,1.701l11.468,0l0,-1.701l-4.736,0l0,-13.79l-2.02,0l0,13.79z" id="path84"/>
   </g>
   <g id="g86" transform="translate(477.92291259765625,364.1328125) ">
    <path fill="#ffffff" fill-rule="nonzero" d="m-108.800004,42.666668c-0.115,2.16 -0.253,4.782 -0.253,6.689l-0.045,0c-0.553,-1.793 -1.173,-3.747 -1.952,-5.883l-2.737,-7.514l-1.517,0l-2.526,7.378c-0.737,2.206 -1.333,4.178 -1.772,6.019l-0.044,0c-0.047,-1.93 -0.163,-4.505 -0.3,-6.848l-0.413,-6.642l-1.908,0l1.08,15.49l2.554,0l2.641,-7.494c0.643,-1.907 1.149,-3.607 1.562,-5.214l0.047,0c0.412,1.56 0.965,3.261 1.654,5.214l2.759,7.494l2.55,0l0.965,-15.49l-1.978,0l-0.367,6.801z" id="path88"/>
   </g>
   <g id="g90" transform="translate(1319.86474609375,239.7357940673828) ">
    <path fill="#ffffff" fill-rule="nonzero" d="m-108.800004,42.666668l-4.713,0l0,1.703l11.468,0l0,-1.703l-4.732,0l0,-13.788l-2.023,0l0,13.788z" id="path92"/>
   </g>
   <g id="g94" transform="translate(1341.36376953125,232.75100708007812) ">
    <path fill="#ffffff" fill-rule="nonzero" d="m-108.800004,42.666668c-0.111,2.16 -0.253,4.779 -0.253,6.687l-0.045,0c-0.554,-1.791 -1.172,-3.745 -1.949,-5.883l-2.736,-7.517l-1.517,0l-2.529,7.378c-0.741,2.207 -1.332,4.184 -1.772,6.022l-0.048,0c-0.045,-1.929 -0.157,-4.502 -0.297,-6.849l-0.413,-6.641l-1.903,0l1.079,15.491l2.547,0l2.642,-7.494c0.646,-1.907 1.152,-3.607 1.564,-5.217l0.048,0c0.411,1.565 0.965,3.265 1.657,5.217l2.756,7.494l2.547,0l0.966,-15.491l-1.977,0l-0.367,6.803z" id="path96"/>
   </g>
  </g>
 </g>
</svg>